<?xml version="1.0" encoding="UTF-8"?>
<svg id="Layer_1" data-name="Layer 1" xmlns="http://www.w3.org/2000/svg" viewBox="0 0 1024 1024">
  <defs>
    <style>
      .cls-1 {
        fill: #fff;
        opacity: .5;
      }

      .cls-2 {
        fill: #f2f2f2;
      }

      .cls-3 {
        fill: #254f22;
      }
    </style>
  </defs>
  <rect class="cls-3" width="1024" height="1024"/>
  <g>
    <rect class="cls-1" x="790.68" y="376.15" width="52.89" height="239.24" rx="6.99" ry="6.99"/>
    <rect class="cls-1" x="700.27" y="310.9" width="52.89" height="369.73" rx="6.99" ry="6.99"/>
    <path class="cls-2" d="M324.93,654.76v42.76c0,51.49,20.92,80.15,75.84,80.15s70.9-39.4,70.9-84.33c0-74.36-21.71-97.43-122.19-155.98-100.82-58.79-154.68-96.37-154.68-198.79,0-91.19,37.37-183.21,206.48-183.09,172.94.12,199.63,91.16,199.63,166.23v36.96h-143.27v-34.1c0-48.18-10.99-77.34-59.01-77.34s-59.34,30.15-59.34,76.01c0,48.88,12.56,72.82,94.92,117.32,140.21,76.57,183.19,121.03,183.19,236.78,0,98.15-46.57,191.16-221.4,191.16s-215.56-81.54-215.56-172.69v-41.06h144.5Z"/>
  </g>
</svg>